<?xml version="1.0" encoding="UTF-8"?>
<svg viewBox="0 0 565 339" xmlns="http://www.w3.org/2000/svg">
<title>sad</title>
<title>Layer 1</title>
<path d="m-30.38874-4.21082h600v358.29382h-600z"/>
<g transform="matrix(1.05412,0,0,1.05412,117.86855,-409.84426)">
<path d="m97.35562,692.9602c.7716-6.1521 3.30844-14.22748 6.77306-21.56036 3.25861-6.89685 3.65282-12.04834 1.40875-18.40869-2.08331-5.90472-1.73412-11.82532.74384-12.61176 1.33297-.4231 1.76695-1.22815 1.40604-2.60834-.28714-1.09796.60442-5.35028 1.98123-9.44959 3.01651-8.98126 2.82018-13.60175-.79325-18.66919-1.49341-2.0943-3.01239-5.24432-3.37551-7-.61724-2.98431-4.71115-12.00476-8.02955-17.69208-.96966-1.66186-1.4121-5.01434-1.31976-10 .14385-7.76532-1.63776-16.95276-3.53603-18.23468-2.75637-1.86145-3.44032-.73541-2.87574,4.73468 .39032,3.78204.21156,5.5-.57227,5.5-.62694,0-1.1399-.75-1.1399-1.66663 0-2.38715-1.47206-.5943-1.64187,1.99963-.07803,1.19183-1.33402,6.44202-2.79106,11.66699-3.88425,13.92896-6.42786,26.02094-6.646,31.59436-.20547,5.24963.96256,16.28235 1.89119,17.86334 .30938.52673.66716,1.93933.79509,3.1391s1.39359,4.7196 2.8126,7.82196 2.58006,6.23242 2.58006,6.95593 .89999,2.12982 2,3.12531 2,2.58514 2,3.53253 .62637,2.24243 1.39193,2.87781c1.80603,1.49884 2.68949,4.92133 1.46563,5.67773-.54961.33966-.5874,1.08258-.08902,1.75098 .47612.63855.97979,7.63788 1.11927,15.55408 .19466,11.04742.61731,14.94818 1.81834,16.78119 .86062,1.31348 1.67586,2.2616 1.81165,2.10693s.50087-2.30621.81129-4.78125zm-3.57637-52c-1.83427-5.99713-4.78567-19.95154-4.65305-22 .08901-1.375-.30817-4.45252-.88261-6.83899s-.88166-8.58582-.68267-13.77631c.28863-7.52887.76286-9.94714 2.34526-11.9588l1.98346-2.52155 .70657,4.71179c.40892,2.72693.28611,5.38513-.29157,6.31012-.60054.96161-.65478,2.52649-.13619,3.92841 .47406,1.28149.58353,2.78058.24321,3.33118s-.08332,3.77161.57108,7.15765c2.33078,12.06018 1.97078,11.15808 3.74486,9.38397 .87155-.87152 1.77868-3.52508 2.01585-5.89679 .44583-4.45825.88541-5.56165 1.8367-4.61035 1.63464,1.63458-.16553,18.11719-2.70631,24.77966-1.15361,3.02502-2.4436,6.40002-2.86663,7.5-.59777,1.55438-.87138,1.66577-1.22795.5zm-17.71554,18.75c.54323-1.23749 1.79298-3.59998 2.77723-5.25 2.1539-3.61078 2.09251-8.9826-.18859-16.5-3.98752-13.14099-5.89568-32.56116-3.75371-38.20294 2.0701-5.45245 3.38854-10.3374 3.58619-13.28723 .11673-1.74225.50219-3.6369.85654-4.21027 1.24318-2.01147 2.50893-17.63281 1.6185-19.97485-.66185-1.74078-1.6601-2.32471-3.97435-2.32471-1.69976,0-3.91365-.44055-4.91974-.979-2.30416-1.23309-4.4736,1.03522-3.60562,3.76996 .32941,1.03784-.09774,3.5542-.94918,5.59204s-1.29929,4.10761-.99524,4.59961-.05486,1.25964-.7976,1.70593c-1.86689,1.12183-4.48183,9.68713-5.80271,19.00696-2.14911,15.16357.95127,32.461 7.71283,43.03101 1.86435,2.91449 3.31216,5.6308 3.21734,6.03625s.35371,2.57275.99673,4.81616 1.27038,6.40588 1.39413,9.25c.2407,5.53235 1.23159,6.55609 2.82724,2.92108zm-11.37052-57.41663c-1.23438-1.23444-.64951-8.77991 1.26604-16.33337 2.54903-10.05145 3.85351-13.23791 5.23128-12.77863 1.141.38031 2.00541,9.77862.89935,9.77862-.83852,0-3.41318,6.08612-3.80732,9-.18597,1.375-.59193,4.41254-.90213,6.75-.54102,4.07703-1.24918,5.02136-2.68723,3.58337zm28.5854-112.14502c3.43636-3.38071 8.94793-8.09964 12.24793-10.48645 6.15649-4.45288 29.80721-17.7019 31.59949-17.7019 2.64098,0 6.92073-3.35452 9.20666-7.21634 5.10188-8.61902 13.54144-17.53848 24.19385-25.56964 3.3-2.48798 6.45-5.04431 7-5.68076s1.89999-1.49896 3-1.91663c1.89152-.71826 1.90414-.83005.23264-2.06101-.98006-.72171-1.50919-1.97434-1.18779-2.81189 .43289-1.12808-.38538-1.67676-3.23262-2.16769-5.58963-.96374-26.90088-3.22855-32.05205-2.69904-11.78294,1.21118-14.00244,1.82108-18.80868,3.53278-3.31002,1.17886-9.82424,2.99771-13.79065,5.54758-4.46893,2.87289-8.66085,5.38995-8.66085,5.81445s-2.32163,1.49429-4.79662,4.19006c-2.47501,2.6958-7.1851,7.0257-10.00248,11.3096-2.65707,4.04019-4.14494,6.92059-7.43568,13.42459-2.30518,4.55606-3.76384,10.64548-4.18985,13.12689-1.35421,7.888-2.37231,20.36362-.65869,28.05087 .04583.20563 2.55926.16852 5.5854-.08243 5.16235-.4281 5.88789-.83585 11.75-6.60306zm71.14616-39.6423c17.48894-5.97977 33.74667-7.91156 43.04134-5.11426l4.75742,1.43176-.69026-3.67947c-.37965-2.02371-1.12889-3.95056-1.66498-4.28189s-1.09863-1.44681-1.25012-2.47888-1.13405-2.11203-2.18352-2.3999-3.16136-1.63077-4.69316-2.98422c-7.12634-6.29669-13.92311-5.12445-28.35835,4.89096-10.12267,7.02325-22.1761,18.06986-19.71683,18.06986 .36118,0 5.20248-1.55426 10.75847-3.45395z" fill="#e40000"/>
<path d="m90.02653,580.9602c0-1.28137.70806-1.28137 1.5,0 .33992.54999.14148,1-.44098,1s-1.05902-.45001-1.05902-1zm-111.01779,83.00952c1.81063-.96899 3.56564-5.46887 6.04888-15.50952 .68013-2.75 2.25811-6.80627 3.50661-9.01398 5.42213-9.58789 25.93451-24.81397 54.43852-40.40906 13.73602-7.51532 15.71228-9.22681 16.52131-14.30841 .37379-2.34772 1.35638-6.66443 2.18354-9.59271s1.33482-5.49329 1.1281-5.70001-3.28585,1.66419-6.84251,4.15753-11.86666,7.18402-18.46667,10.42371c-21.37626,10.49274-43.4154,16.46875-65.99999,17.89624-9.25738.58514-13.08562,1.27368-16.75001,3.01269-2.6125,1.23987-4.75,2.61853-4.75,3.06378s2.30796,1.57605 5.1288,2.513c4.04969,1.34509 7.36349,1.59406 15.75,1.18323 16.33599-.80017 31.96013-5.56104 44.56699-13.58008 5.82131-3.70282 9.39031-4.25806 4.45209-.69263-14.38772,10.38818-29.54767,15.55084-50.14787,17.0777l-8.75001.64856v4.00903c0,3.21619.62942,4.59699 3.18288,6.98224l3.1829,2.97327 8.04537-2.659c9.43889-3.11963 10.42214-3.60773 16.29073-8.08734 2.44823-1.86877 5.20435-3.39606 6.12473-3.39398 1.05672.00232.51592.70947-1.46749,1.91894-1.7275,1.05335-3.45282,2.41986-3.83406,3.03674s-2.47282,2.24506-4.64796,3.6181c-4.26797,2.69428-5.33745,4.67865-7.50349,13.92242-2.66299,11.36456-2.5571,11.22986-12.95969,16.48004-2.70265,1.36407-5.09511,2.59528-5.31658,2.73602-.5784.36762 4.62217,4.47705 8.26884,6.53394 3.51601,1.98322 5.93172,2.19611 8.61604.75952zm92.03309-96.25952c.01239-1.8194.20082-1.96295.98469-.75 1.25291,1.93878 1.25291,3 0,3-.55001,0-.99311-1.01251-.98469-2.25zm-113.58674,90.67859c.8643-.86426 1.57143-1.89887 1.57143-2.29913s1.51051-1.27387 3.3567-1.94147 4.19558-2.14075 5.22086-3.27368c1.82705-2.01886 1.80763-2.16443-.97482-7.30817-2.37783-4.39569-2.72457-5.92554-2.13455-9.41779 .63837-3.7785.41495-4.45904-2.38188-7.25586-1.89421-1.89423-3.09157-4.11883-3.09996-5.7594-.02336-4.57361-1.06298-6.88696-3.61815-8.05121-4.27662-1.94855-6.12485-1.38928-7.31376,2.2132-.60537,1.83429-2.44026,4.61847-4.07755,6.18707-3.51301,3.36566-3.63912,4.36627-.97689,7.75073 1.10001,1.39844 2,3.6463 2,4.9953s1.15712,4.15784 2.57136,6.24182c1.76678,2.60352 2.50529,4.91571 2.36022,7.38959-.35398,6.03638-.01417,7.63464 2.10738,9.91187 2.42517,2.60309 3.30311,2.70361 5.38961.61713zm366.60723-11.02277c1.34528-3.53833-2.04572-9.4848-7.44705-13.05927-2.23447-1.4787-3.5126-2.87195-2.8403-3.09601 3.65048-1.21686 13.25156,9.94049 13.25156,15.39948 0,1.84253.4133,3.34998.91843,3.34998 1.21741,0 5.08157-6.31152 5.08157-8.29993 0-.86011 1.29883-2.48871 2.88626-3.61908s3.60638-3.85492 4.48651-6.05457 2.47226-4.87146 3.53803-5.9372c4.16305-4.16309 5.33304-10.2652 2.96475-15.46301-.93677-2.05597-.76987-2.96588 1-5.45142 2.8158-3.95447 2.68402-5.51697-.79352-9.409-2.61349-2.92499-3.482-3.26581-8.32303-3.26581-4.17761,0-6.3176.60388-9.42337,2.65918-7.91919,5.24072-16.23471,6.08472-28.39728,2.88232-9.37021-2.4671-31.58078-11.31683-43.68228-17.40497-5.08417-2.55774-15.88416-7.30804-24-10.55621s-18.25745-7.35608-22.5369-9.12885-8.0518-2.95215-8.38295-2.62103c-.68376.68378-.85438,4.65131-.54747,12.73053l.21124,5.56091 5.25,1.30884c14.02533,3.49658 42.20256,16.6062 57.25,26.63593 8.7399,5.82544 21.87244,17.83234 25.6785,23.47748 2.02319,3.00073 7.1983,9.1684 11.50028,13.70587l7.82172,8.25h6.77451c6.37158,0 6.83316-.1543 7.7608-2.59418zm3.9642-13.05231c-1.92499-.86249-4.625-1.97009-6-2.4613-1.86517-.66632-1.28357-.76947 2.29031-.40625 5.12582.52094 8.70969,1.98138 8.70969,3.54926 0,1.29126-.85754,1.17438-5-.6817zm-6.38071-6.38794c-3.87512-1.16028-7.22046-4.46216-10.35403-10.21954-3.26227-5.99383-8.67944-9.65601-20.58112-13.91333-7.45694-2.66742-8.66461-3.37091-6.64816-3.87274 2.62744-.65393 8.58072,1.10504 21.22378,6.27087l7.7598,3.17059 6.5068-2.11554c6.35034-2.06464 10.66675-1.92065 14.02231.46771 1.69568,1.20691 3.56122,8.93402 2.88705,11.95813-1.30496,5.85352-1.72131,6.50964-4.99997,7.87958-3.75562,1.56921-5.5918,1.63922-9.81647.37427zm11.43665-3.53296c.71545-.86206 1.33307-3.75018 1.37244-6.41803 .13599-9.20911-6.60825-12.52637-16.11264-7.92535-2.37366,1.14905-4.31574,2.77527-4.31574,3.61383 0,2.92914 4.33832,9.21124 7.40656,10.7251 4.05502,2.00073 9.99072,2.00305 11.64938.00446zm4.80249-20.39374c2.52692-2.35065 3.24213-3.73261 2.88867-5.58154-.35922-1.87909-.04303-2.45734 1.34375-2.45734 1.46884,0 1.7533.67127 1.49667,3.53137-.37827,4.21533-.19153,3.99658-5.13889,6.01819l-3.94864,1.61353 3.35843-3.12421zm-7.85843-2.03888c-1.18637-.76666-.97153-.97259 1.0275-.98468 1.39014-.00842 3.52762-.71582 4.75-1.57202 1.82547-1.27856 2.2225-1.30725 2.2225-.16052 0,.76794-1.14618,1.91846-2.54706,2.5567-3.06201,1.39514-3.52155,1.40869-5.45294.16052zm-354.80878,42.9903c.40289-1.36963 1.80512-6.02008 3.11604-10.33435l2.38351-7.84406-2.9222.58441c-3.82761.7655-10.50927,5.58008-11.16499,8.0451-.28403,1.06775.32433,3.54272 1.35191,5.5s2.13162,4.37939 2.45341,5.38251c.81809,2.55035 3.89196,1.69318 4.78232-1.33362zm171.35367-10.57349c3.15146-1.31677 4.50131-1.38379 8.02103-.39831 2.32755.65167 5.57831.8891 7.22391.52771 4.26085-.93585 15.0824-11.07825 17.61806-16.51233 1.16357-2.49365 3.57281-6.63995 5.35385-9.21405s3.23827-4.98645 3.23827-5.3609c0-2.39081 7.75006-19.45752 9.88209-21.76178 2.41951-2.61493 2.60062-3.48663 2.70108-13 .05924-5.6084.27832-10.64716.48686-11.19714 .45468-1.19916-2.04013-10.63434-3.13902-11.87152-.42577-.47937-1.89888,1.32062-3.27358,4s-3.65999,6.42145-5.07845,8.3158-2.59874,4.36939-2.62288,5.5c-.08301,3.88733-2.88602,10.02924-5.4192,11.87451-1.39529,1.01642-2.53691,2.48554-2.53691,3.26465s-.73789,1.41657-1.63976,1.41657-2.23755.78754-2.9682,1.75c-1.60257,2.11115-1.80167,5.25-.33302,5.25 .58246,0 .75121.49805.375,1.10675-.48679.78766-.90408.75073-1.44722-.12811-.92866-1.50256-2.9868-.41357-2.9868,1.58038 0,.79254-.45,1.44098-1,1.44098s-1,.62622-1,1.3916-1.15057,1.68036-2.55681,2.03333c-2.08722.52387-2.43175,1.04883-1.87578,2.8584 .96401,3.13769 1.19969,3.23743 3.2552,1.37726 1.00917-.91333 2.42665-1.66058 3.14992-1.66058s-.87247,1.67035-3.54614,3.71185l-4.86122,3.71179-12.03258.401-12.03259.40094v-3.86279c0-2.55688-.42259-3.77826-1.25-3.61279-.6875.13751-1.25-.20001-1.25-.75s-.675-1-1.5-1-1.5.67499-1.5,1.5-.70714,1.5-1.57143,1.5c-1.42857,0-1.42857-.14282 0-1.57141 1.81513-1.81513 1.99237-3.05035.56436-3.93292-.55388-.34235-1.27702.08112-1.60698.94098-.67113,1.7489-3.38596,2.15326-3.38596.50433 0-.58246.38219-.82275.84932-.53406 1.50439.92975 5.03303-4.00031 3.96018-5.53296-.74454-1.06366-1.07631-1.09161-1.46895-.12396-.27898.6875-1.14471,1.25-1.92387,1.25s-1.41667.50513-1.41667,1.12244c0,.77551-.46364.73767-1.5-.12244-.825-.68469-1.49311-1.9773-1.48469-2.87244 .01334-1.41748.14242-1.4339 1-.12756 .87528,1.33337 1.0941,1.33337 1.96938,0 1.47205-2.24237 1.22147-3.19-.73469-2.7785-2.31496.487-5.25-2.89032-5.25-6.04114 0-1.38251-.24332-2.27033-.54071-1.97296-.67342.6734-6.45929-4.31537-6.45929-5.56946 0-.50421-1.40921-3.20697-3.13159-6.00623s-3.63487-6.47436-4.25-8.16705c-1.20116-3.30524-8.89601-10.8537-9.96972-9.78003-1.13339,1.13342-.70009,9.69782.7777,15.3714 .88486,3.39722 1.21924,7.76056.88078,11.49316-.51533,5.68317-.28951,6.51416 4.07183,14.98383 2.53959,4.93189 4.62812,9.64197 4.64118,10.46698 .06196,3.91382 3.99691,10.04053 7.53104,11.72583 2.68355,1.27972 4.40577,3.21216 6.46928,7.25909 3.02002,5.92279 10.90392,14.29175 14.9795,15.90112 3.68889,1.45667 7.28542,1.31049 11.54489-.46924zm-12.40166-31.30713c-.83426-.52856-.97089-1.09814-.35478-1.47894 .55109-.34058 1.26001.05316 1.57538.875 .66263,1.72681.60022,1.75769-1.2206.60394zm35.93572-9.52631c-.04341-1.0542.19293-1.64484.52522-1.3125s.36781,1.19476.07893,1.91663c-.31921.79773-.55618.56079-.60416-.60413zm-27.07895,6.40118c0-1.80316-2.31667-3.33453-3.40224-2.24896-.80437.80432-.76166,4.76721.06023,5.58905 1.00159,1.00159 3.34201-1.33752 3.34201-3.34009zm5,.51544c0-2.47632-.44791-3.5-1.53139-3.5-2.10642,0-2.84918,2.42041-1.51044,4.92188 1.67859,3.13647 3.04182,2.49927 3.04182-1.42188zm4.81642.17291c.22424-1.89429-.13988-2.67291-1.25-2.67291-1.08321,0-1.56642.95117-1.56642,3.08337 0,3.82593 2.35555,3.48267 2.81642-.41046zm5.18358-.75623c0-3.82599-2.35555-3.48267-2.81642.41046-.22424,1.89423.13988,2.67285 1.25,2.67285 1.08321,0 1.56642-.95111 1.56642-3.08331zm5,.14233c0-3.24554-1.59898-4.86005-3.21391-3.24506-1.42618,1.42615-.09273,6.18604 1.73296,6.18604 .97224,0 1.48096-1.01025 1.48096-2.94098zm9.20349-17.06531c.93692-1.64654 1.30473-2.99371.81738-2.99371s-1.17174.90002-1.52087,2-1.05444,2-1.56738,2-.93262.45001-.93262,1c0,1.91431 1.51108.9679 3.20349-2.00629zm-42.70349,1.00629c-.33992-.54999-1.29303-1-2.11803-1-.825,0-1.22189.45001-.88197,1s1.29303,1 2.11803,1c.825,0 1.22189-.45001.88197-1zm-1.07852-4.12701c-.37483-.60651-1.11193-.54486-1.9667.16455-.75194.62408-1.80579.86359-2.34188.53229-1.1832-.73126-2.4558,1.06635-1.66301,2.34912 .32202.521 1.86756.27057 3.56952-.57849 1.65089-.82361 2.73183-1.93396 2.40207-2.46747zm12.06586-1.85248c.38098-.61645 1.35217-.52374 2.61992.25 1.70119,1.03827 2.23842.92755 3.45364-.71161 1.77129-2.38922 1.86771-6.70886.1891-8.47125-1.01935-1.07025-.8418-1.18921.96223-.64465 1.21672.36731 3.05647.216 4.08832-.33624 2.81065-1.50421 6.20497-.2608 6.16904,2.25989-.0275,1.92957-.12776,1.96619-1.04968.38336-1.17006-2.00885-4.95155-2.31836-6.71991-.54999-1.7758,1.77582-1.51061,7.46686.38179,8.19299 3.08507,1.1839 5.60434.61121 6.12846-1.39301 .6189-2.36658 2.28975-2.68298 2.28975-.43359 0,1.1189.78574,1.47607 2.75,1.25 2.37364-.27307 2.72227-.72699 2.54742-3.31641-.18254-2.70313-.13034-2.75995.52757-.5741 .99377,3.30164 2.97789,3.73962 4.11287.90784 .76146-1.89984.94714-1.98767.99875-.47241 .05461,1.60333.58272,1.76386 3.8111,1.1582 2.06123-.38672 4.03593-1.16943 4.38818-1.73944s1.14081-.72711 1.7523-.34918c.63414.39191 1.1118.01733 1.1118-.87189 0-.85742.5625-1.44653 1.25-1.30902 1.64563.32916 1.64563-4.45142 0-5-.75951-.25317-1.25601.4989-1.2653,1.91669-.00891,1.35791-.32243,1.86023-.75,1.20154-.40408-.62244-1.8597-1.06995-3.23469-.99438-2.03308.11169-2.45502.60321-2.25911,2.63178 .23763,2.46063.22792,2.46393-.71777.24438-1.10289-2.58844-4.02312-3.04401-4.02312-.62756 0,1.25848-.30661,1.36798-1.36671.48822-.75169-.6239-2.2142-1.05768-3.25-.96405-3.58566.32422-5.04996-.15326-5.04996-1.64661 0-.91534.93249-1.5 2.39235-1.5 1.34026,0 2.12056.43976 1.77432,1-.33992.54999.11008,1 1,1s1.32877-.46802.97523-1.04004c-.40921-.66211.20955-.82617 1.70259-.45142 1.28998.32373 4.02768-.11426 6.08379-.97339 2.85991-1.19495 3.74586-1.26508 3.77019-.29858 .02141.8504.43008.74432 1.25-.32434 .67001-.87323 1.75516-1.4068 2.41144-1.18555 .81699.27533 1.18497-1.11591 1.16702-4.41223-.01442-2.64795.42676-5.99085.98041-7.42871 1.22464-3.18048 7.47525-8.49719 11.04224-9.39246 3.63057-.91126 5.1171-2.36176 5.1171-4.99329 0-2.24243-2.20557-4.96106-3.20995-3.95667-.28928.28925-.31799-.56195-.06383-1.89148 .57059-2.9848-1.2361-4.27063-3.52002-2.50519-1.53523,1.18671-1.53084,1.11231.04379-.74262 .96249-1.13385 1.75-3.12457 1.75-4.42389 0-2.2287.07643-2.25787 1.35046-.51556 .89009,1.21729 2.08371,1.65515 3.50137,1.28442 1.18301-.30939 1.89874-.15448 1.59053.34424s-1.68539.90674-3.06039.90674c-1.55547,0-2.24451.41339-1.82378,1.09418 .37193.60181 1.83402.87286 3.24907.60236l2.57285-.49182-2.35332,1.77509-2.3533,1.77509 2.09081,1.11902c1.14995.61542 2.91092.81927 3.91327.45294 1.76105-.64355 1.76131-.59625.00729,1.40436-1.36024,1.55145-1.50874,2.25964-.59253,2.82587 1.70454,1.05347 9.39587-7.90546 10.79443-12.57349 1.50107-5.01007 1.40759-6.6767-.56142-10.00995-1.44197-2.44104-1.51215-3.57401-.50508-8.15427 1.95171-8.87662 2.4758-21.82068 1.26808-31.31937-.62936-4.94998-1.53999-12.0528-2.0236-15.784-.95877-7.39722-2.95421-11.35324-6.36705-12.6228-7.50539-2.79199-50.58002,7.29694-57.76875,13.53058-.86408.7493-3.73637,4.78049-6.38286,8.95819-5.43576,8.58087-6.36723,13.11795-4.2807,20.85077 1.4306,5.30188 3.64622,7.24838 3.8708,3.4006l.13617-2.33334 .43338,2.25c.23836,1.23752.75392,2.25 1.14571,2.25s.78224,1.23752.86768,2.75c.151,2.6734.12497,2.68735-.93471.5-1.78422-3.68286-3.78441-2.77777-3.78441,1.71249 0,7.89548-6.26628,20.89389-12.21223,25.33237-5.70673,4.25989-7.9118,4.95575-15.42604,4.86829-5.20961-.06067-7.52924.30774-8.08389,1.284-.65643,1.15533-1.24612,1.14832-3.77785-.04474-2.93038-1.38092-2.93761-1.40192-.31129-.90442 4.42266.83783 4.25708-1.31397-.49176-6.39087-5.06509-5.41498-6.82297-8.52832-8.67125-15.35712-.70708-2.61249-1.84268-4.75-2.52354-4.75-1.51014,0-8.50216,17.88739-8.50216,21.75073 0,3.23053 5.37876,11.80182 9,14.34198 3.41727,2.39703 9.15247,3.53577 8.77857,1.74304-.15322-.73468-1.17858-1.62836-2.27858-1.98608-1.86469-.60632-1.84779-.65704.25-.75 1.70675-.07556 2.25-.70325 2.25-2.59967 0-1.375.525-2.5 1.16667-2.5s.87057.29614.50867.65802-.09939,1.34827.58334,2.19196c.83407,1.0307.85924,1.30487.07673.83575-1.48534-.8905-2.05922.83606-1.51358,4.55365 .43737,2.98004.65868,3.15149 5.40983,4.19159 1.50241.32886 4.31491,1.98804 6.25,3.68707 3.32937,2.92322 3.51834,3.4295 3.51834,9.42657 0,3.48554.45734,6.62 1.01631,6.96545s.74412,1.06854.41144,1.60687 .55998,2.14356 1.98369,3.56726 2.58856,2.24707 2.58856,1.82971 .69407-.18274 1.54238.52124c1.91081,1.58588 2.99944.50159 3.80038-3.78516 .63899-3.41992-.09528-4.08319-2.21419-2-1.01955,1.00238-1.20775.95288-.95-.25 .22784-1.06323-.40646-1.43091-2.17857-1.26269-2.16272.2052-2.2617.09613-.73368-.80884 1.76764-1.04688 10.37685-.31482 11.15777.94873 .21973.35553 3.34013.62396 6.93425.59656 4.40535-.03357 6.25513.28845 5.67667.98822-.47191.57092-1.05542,2.38806-1.29668,4.03803l-.43866,3-.14984-3.28137c-.15973-3.49817-2.48434-5.28412-4.39325-3.37518-.80629.80627-1.47032.80908-2.43279.01032-.96979-.80487-1.7249-.76575-2.82379.14624-1.22852,1.01959-1.5.95123-1.5-.37756 0-1.91998-1.13171-2.0907-2.8-.42242-1.46716,1.46716-1.59874,6.79999-.16778,6.79999 .56773,0 1.4392-1.01251 1.93662-2.25 .88194-2.19415.90596-2.18439.96777.393 .05246,2.18762 1.63016,3.857 3.64517,3.857 .23001,0 .47041-1.23749.53421-2.75 .08678-2.05719.23399-2.24615.58437-.75 .81932,3.49878 5.34847,5.84808 6.78697,3.52051zm-2.22853-26.7251c-3.23883-.62457-5.2588-4.10321-5.2588-9.05621 0-5.74884 9.54002-29.23303 11.88344-29.25281 .88911-.00751 2.59965-.27734 3.80121-.59955 1.87717-.50345 2.33748-.01837 3.27051,3.44665 .59723,2.2179 3.31792,8.32495 6.04599,13.57129 4.00514,7.70221 4.84833,10.16992 4.37936,12.81702-.66357,3.74554-5.46257,8.7782-8.3706,8.7782-1.98879,0-5.0099-4.49274-5.0099-7.45032 0-.8523-.45-1.54968-1-1.54968s-1,1.35004-1,3c0,3.11017-3.05411,7.10309-5.25,6.86383-.6875-.07489-2.25854-.33069-3.4912-.56842zm37.2412-24.91589c-8.61371-2.01856-13.5-5.8194-13.5-10.5011 0-.67151-.58502-1.93134-1.30003-2.79968s-2.0921-4.72873-3.0602-8.57874-2.41806-7.5069-3.22217-8.12646c-1.12105-.86377-1.22939-1.73837-.46457-3.75 1.26175-3.31863 1.91444-3.38104 1.29172-.12354-.53656,2.80685 1.68459,3.49503 3.64732,1.13007 .62532-.75348 3.90616-2.6127 7.29074-4.13162 5.44376-2.44299 6.97829-2.69928 13.29936-2.22122 16.80484,1.27093 22.88184,7.70737 20.5166,21.73004-1.97022,11.68079-6.87656,16.85761-16.55412,17.4668-3.26956.20581-6.84465.16327-7.94466-.09454zm-25.4297-28.62952c-.04695-1.16873-.87979-1.75-2.50743-1.75-2.25244,0-2.39328-.28415-1.85846-3.75 .74539-4.83038 1.29559-5.43201 1.29559-1.41666 0,1.74167.45,3.16666 1,3.16666s1-.44998 1-1 .39752-1 .88338-1c1.31113,0 1.91855,3.24631 1.03209,5.51599-.6604,1.69089-.78528,1.72546-.84517.23401zm-64.97467,58.18195c1.59741-1.13745 2.90438-2.66431 2.90438-3.39307 0-1.49548-2.78012-2.97601-4.91167-2.6156-3.27781.5542-8.00019-1.07019-8.59935-2.95801-.34307-1.08087-1.19344-1.96527-1.88969-1.96527-.73995,0-1.26595-1.24652-1.26595-3 0-1.64996.26249-3.00085.58333-3.00195s.67771-1.35114.79308-3c.3014-4.30823-1.17315-3.69159-3.07389,1.2854-1.91766,5.02136-2.00103,6.86121-.548,12.0943 2.25414,8.11829 9.59193,11.12268 16.00777,6.5542zm8.71214-7.33276c.2652-4.08838.05778-4.71314-1.5-4.51813-.99427.12451-2.61467-.12341-3.60088-.5509-2.61392-1.133-3.2387.08752-1.64903,3.22138 4.39085,8.65601 6.27482,9.17175 6.74991,1.84766zm112.12228-2.61853c2.6355-5.0639 2.88843-6.11304 1.59363-6.60992-1.74924-.67127-6.35048,2.0144-7.18729,4.19507-.73126,1.90564.51312,8.4342 1.60759,8.4342 .46935,0 2.26308-2.70868 3.98607-6.01935zm-121.93003-2.85822c0-1.03265-.59546-2.3717-1.32325-2.97571-1.0592-.87909-1.2361-.5044-.8865,1.87756 .47791,3.25604 2.20975,4.11676 2.20975,1.09814zm-4.29026-2.12042c-.22549-3.22315-.4805-3.43347-2.56299-2.11383-1.05553.66882-1.10278,1.3255-.21481,2.98468 1.63485,3.05475 3.022,2.61987 2.77779-.87085zm-9.18216-10.06317c.95023-2.10718 1.45937-4.53046 1.13142-5.38507-.36826-.95966-.04818-1.55377.8372-1.55377 .78838,0 1.96022-1.01251 2.60406-2.25s.81358-1.91638.37719-1.50867c-.86984.81268-3.47746-.95978-3.47746-2.36377 0-.48267.88843-.87756 1.97432-.87756 1.19319,0 2.60376-1.21722 3.56527-3.07654 1.5107-2.92139 1.49091-3.10272-.39243-3.59522-1.09088-.28528-2.53466-1.84952-3.20842-3.47614-1.03648-2.50226-1.70325-2.91089-4.33189-2.65479-2.31871.22592-3.03231.74664-2.813,2.05267 .22683,1.35101-.40734,1.75-2.78139,1.75-3.50224,0-4.91543,2.20706-2.93847,4.58917 .92805,1.11823 2.24189,1.38654 4.61188.94196 3.23835-.60754 3.31414-.54187 3.31414,2.87158 0,3.44714-.0396,3.47943-3,2.44745-1.64999-.5752-3.00001-1.39929-3.00001-1.83136 0-.92468-4.03164-2.11725-5.04348-1.49188-1.23235.7616 2.18523,9.3454 3.89344,9.77899 .90752.23035.63755.31818-.59996.19513-2.32037-.23065-3.1251,1.84009-1.18182,3.04114 .58749.3631.80912,1.33521.49252,2.16028s.4108,2.52502 1.62686,3.78851c2.90144,3.01465 5.96777,1.70862 8.34003-3.55212zm-5.52758.06116c-1.2819-.82843-1.24555-.97156.25-.98468 .96249-.00842 1.75.43469 1.75.98468 0,1.2196-.1128,1.2196-2,0zm13,2.44098c0-.24255-.45-.44098-1-.44098s-1,.47656-1,1.05902 .44999.78088 1,.44098 1-.81647 1-1.05902zm154.49999-13.96118c22.00237-12.45483 37.34403-19.3627 59.59329-26.83301 5.72369-1.92175 12.4317-4.41858 14.90671-5.54849 3.05206-1.39334 6.75232-2.08856 11.5-2.16071 8.3616-.12701 18.16208-1.26633 19.11822-2.22247 .3779-.3779-.51559-1.63315-1.98554-2.7894-4.08392-3.2124-5.93307-7.56842-5.36233-12.63202 .27121-2.40616 1.26541-5.22824 2.20935-6.27127 2.33029-2.57492 1.14233-4.02438-3.28873-4.01263-4.54236.01202-11.6712,3.25775-21.3364,9.71435-8.31659,5.55572-19.75201,10.97327-24.89966,11.79627-3.2854.52524-3.23413.45648 1.04507-1.40183 9.50107-4.12598 20.77753-10.09305 27.5-14.55197 3.85001-2.55365 8.01251-4.8996 9.25-5.21323 2.87753-.72922 2.87753-2.16046 0-3.27203-2.55222-.9859-5.91348-4.44592-7.72449-7.95142-1.19763-2.31827-1.29327-2.24597-4.37497,3.30679-6.18536,11.14517-15.20666,17.7995-35.36456,26.08572-14.08582,5.79019-55.19438,27.00394-57.53598,29.69098-1.92993,2.21463-2.30077,5.83582-.75583,7.38074 1.30077,1.30078 1.44971,4.67584.4967,11.25494l-.77483,5.34912 3.39197-1.74585c1.8656-.9602 8.34198-4.54785 14.39198-7.9726zm-174.68357-8.73834c.17403-1.50778.73524-2.74146 1.24712-2.74146s2.63859-1.54297 4.72602-3.42883 5.01374-3.73465 6.50289-4.10843 2.70755-1.01294 2.70755-1.42044c0-.91821-18.0348-8.57611-31.66989-13.4476-9.76443-3.48862-27.62159-10.90112-37.89545-15.73041-2.68862-1.26379-9.1177-6.00974-14.28687-10.54651-6.93672-6.08814-10.74076-8.66629-14.52312-9.84293-2.81858-.8768-5.76259-1.85498-6.54227-2.17371-.96533-.39465-.74022.51648.7056,2.85583 4.39283,7.10776 3.8121,15.59952-1.49838,21.91068-1.39616,1.65924-2.29304,3.26227-1.99306,3.56226s3.39349.79282 6.87444,1.09518 7.91456,1.34503 9.85247,2.31708 5.76291,2.07999 8.5,2.46213c7.69453,1.07425 24.85979,5.51019 25.97653,6.71301 .70273.75687.40546.8602-1,.34757-3.86462-1.40955-21.43358-5.56488-23.52874-5.56488-1.16526,0-5.34798-1.0657-9.29495-2.36822-6.47051-2.13535-17.67632-4.13016-17.67632-3.1467 0,.21497.71511,3.45624 1.58915,7.20288s1.36684,8.49954 1.09515,10.56204c-.57972,4.40082 1.06654,5.0072 4.26713,1.57178 1.88509-2.02341 2.90073-2.16968 14.28895-2.0582 14.6405.14337 16.571.6116 45.75962,11.09845 12.375,4.44608 23.17501,7.97964 24,7.85233s1.64239-1.46509 1.81643-2.9729zm-92.72144-11.91892c1.52536-2.85016.59129-14.0669-1.63471-19.63019-1.80801-4.51868-12.88807-15.54794-16.59281-16.51675-4.4401-1.1611-8.86747,7.30466-8.86747,16.9559 0,11.25311 10.20634,21.03436 22.21482,21.28955 2.84049.06039 3.98909-.43353 4.88017-2.09851zm137.90501-4.29611c6.2291-1.64203 19.66792-8.37827 24.65767-12.35968 3.67058-2.92883 13.89676-17.94565 12.89967-18.94272-.7628-.76282-21.50858,9.72888-29.06223,14.69754-6.49261,4.27072-20.49511,16.04779-20.49511,17.23782 0,1.28946 5.88483.97903 11.99999-.63297zm242.25-21.57788c2.39227-2.59244 2.74802-3.79105 2.73468-9.21433-.01852-7.543-.86206-9.22507-4.10983-8.19513-4.42972,1.40472-9.81128,5.43732-11.42773,8.56317-1.95584,3.7822-1.27023,7.16553 2.14389,10.57965 3.13513,3.13516 6.70154,2.55518 10.659-1.73337zm-378.69691-2.60031c1.35166-1.4585 2.98345-4.40695 3.62616-6.55218 1.02318-3.41507.90126-4.45065-.97999-8.32278-3.39989-6.99802-10.59671-7.38135-14.45788-.77014-1.54395,2.64362-1.68747,3.83258-.83521,6.91919 .95938,3.47461 7.45021,11.37769 9.34454,11.37769 .46463,0 1.95071-1.1933 3.30238-2.65176zm372.37825-17.32852c8.44705-2.42261 11.49527-10.11795 6.7821-17.12183-5.34729-7.94623-20.62546-7.49094-28.35083.84488-3.63178,3.91873-3.19983,8.50394 1.12628,11.95581 6.13977,4.89905 13.21362,6.39432 20.44244,4.32114z" fill="#fff"/>
</g>
</svg>
